# xmcd
#
# Track frame offsets:
#	150
#	22134
#	42177
#	67938
#	90463
#	114729
#	137011
#	163471
#	184422
#	204111
#
# Disc length: 3077 seconds
#
# Revision: 1070097999
# Processed by: cddbd v1.5.2PL0 Copyright (c) Steve Scherf et al.
# Submitted via: EZCDAudioConverter 8.0.2.1
#
DISCID=8a0c030a
DTITLE=Mạnh Quỳnh - Cho Tôi Được Một Lần
DYEAR=1998
DGENRE=
TTITLE0=Cho Tôi Được Một Lần
TTITLE1=Đêm buồn phố thị
TTITLE2=Giữa lòng đất mẹ
TTITLE3=Quê hương
TTITLE4=Lòng mẹ 2
TTITLE5=Hương tình cũ
TTITLE6=Quán nửa khuya
TTITLE7=Trả em thành phố này
TTITLE8=Đường về khuya
TTITLE9=Thư người em gái thành đô
EXTD=
EXTT0=
EXTT1=
EXTT2=
EXTT3=
EXTT4=
EXTT5=
EXTT6=
EXTT7=
EXTT8=
EXTT9=
PLAYORDER=
